<?xml version="1.0" encoding="utf-8"?>
<!-- Generator: Adobe Illustrator 24.3.0, SVG Export Plug-In . SVG Version: 6.00 Build 0)  -->
<svg version="1.1" xmlns="http://www.w3.org/2000/svg" xmlns:xlink="http://www.w3.org/1999/xlink" x="0px" y="0px"
	 viewBox="0 0 347.1 47.6" style="enable-background:new 0 0 347.1 47.6;" xml:space="preserve">
<style type="text/css">
	.st0{fill:#FFFFFF;}
	.st1{fill-rule:evenodd;clip-rule:evenodd;}
	.st2{fill:#E2B04B;}
	.st3{fill-rule:evenodd;clip-rule:evenodd;fill:#FFFFFF;}
	.st4{fill:#FF6E1C;}
	.st5{filter:url(#Adobe_OpacityMaskFilter);}
	.st6{mask:url(#prefix__b_2_);fill:#02979B;}
	.st7{fill:#02979B;}
	.st8{fill:none;stroke:#A5A5A5;stroke-width:0.5;stroke-miterlimit:10;}
	.st9{fill:none;stroke:#FF5627;stroke-width:2;stroke-miterlimit:10;}
	.st10{fill:#F5F5F9;}
	.st11{clip-path:url(#SVGID_14_);}
	.st12{clip-path:url(#SVGID_16_);}
	.st13{clip-path:url(#SVGID_18_);}
	.st14{clip-path:url(#SVGID_20_);}
	.st15{fill:#CE05A8;}
	.st16{fill:#139FAA;}
	.st17{fill:#69AA15;}
	.st18{fill:none;stroke:#D4D4D4;stroke-miterlimit:10;}
	.st19{fill:#F0F0F0;}
	.st20{fill:#FF6300;}
	.st21{fill:#0E2C42;}
	.st22{fill:#FF8431;}
	.st23{opacity:0.7;}
	.st24{fill:#101C29;}
	.st25{fill:#FFEA00;}
	.st26{fill:none;stroke:#3D3D3D;stroke-width:1.5;stroke-linecap:round;stroke-linejoin:round;stroke-miterlimit:10;}
	.st27{fill:#FFFFFF;stroke:#AEAEAE;stroke-width:0.5;stroke-miterlimit:10;}
	.st28{fill:#FF5627;}
	.st29{fill:url(#SVGID_101_);}
	.st30{opacity:0.5;}
	.st31{fill-rule:evenodd;clip-rule:evenodd;fill:#003B70;}
	.st32{opacity:0.3;}
	.st33{fill-rule:evenodd;clip-rule:evenodd;fill:none;stroke:#0D7AC9;stroke-width:2;stroke-linecap:round;stroke-linejoin:round;}
	.st34{opacity:0.25;fill-rule:evenodd;clip-rule:evenodd;fill:#24B3FF;}
	.st35{opacity:0.5;fill-rule:evenodd;clip-rule:evenodd;fill:#24B3FF;}
	.st36{opacity:0.9;fill-rule:evenodd;clip-rule:evenodd;fill:#FFFFFF;}
	.st37{opacity:0.5;fill-rule:evenodd;clip-rule:evenodd;fill:none;stroke:#3DF7F8;stroke-miterlimit:10;}
	.st38{clip-path:url(#SVGID_103_);}
	.st39{fill:#707070;}
	.st40{fill:none;stroke:#1A1A1A;stroke-miterlimit:10;}
	.st41{opacity:0.9677;fill:none;stroke:#434242;stroke-miterlimit:10;}
	.st42{opacity:0.9355;fill:none;stroke:#494948;stroke-miterlimit:10;}
	.st43{opacity:0.9032;fill:none;stroke:#4F4F4E;stroke-miterlimit:10;}
	.st44{opacity:0.871;fill:none;stroke:#555554;stroke-miterlimit:10;}
	.st45{opacity:0.8387;fill:none;stroke:#5C5C5B;stroke-miterlimit:10;}
	.st46{opacity:0.8065;fill:none;stroke:#626261;stroke-miterlimit:10;}
	.st47{opacity:0.7742;fill:none;stroke:#686867;stroke-miterlimit:10;}
	.st48{opacity:0.7419;fill:none;stroke:#6F6E6E;stroke-miterlimit:10;}
	.st49{opacity:0.7097;fill:none;stroke:#757574;stroke-miterlimit:10;}
	.st50{opacity:0.6774;fill:none;stroke:#7B7B7A;stroke-miterlimit:10;}
	.st51{opacity:0.6452;fill:none;stroke:#808080;stroke-miterlimit:10;}
	.st52{opacity:0.6129;fill:none;stroke:#858584;stroke-miterlimit:10;}
	.st53{opacity:0.5806;fill:none;stroke:#8B8B8A;stroke-miterlimit:10;}
	.st54{opacity:0.5484;fill:none;stroke:#919191;stroke-miterlimit:10;}
	.st55{opacity:0.5161;fill:none;stroke:#989797;stroke-miterlimit:10;}
	.st56{opacity:0.4839;fill:none;stroke:#9E9E9D;stroke-miterlimit:10;}
	.st57{opacity:0.4516;fill:none;stroke:#A4A4A4;stroke-miterlimit:10;}
	.st58{opacity:0.4194;fill:none;stroke:#AAAAAA;stroke-miterlimit:10;}
	.st59{opacity:0.3871;fill:none;stroke:#B1B1B0;stroke-miterlimit:10;}
	.st60{opacity:0.3548;fill:none;stroke:#B7B7B7;stroke-miterlimit:10;}
	.st61{opacity:0.3226;fill:none;stroke:#BDBDBD;stroke-miterlimit:10;}
	.st62{opacity:0.2903;fill:none;stroke:#C3C3C3;stroke-miterlimit:10;}
	.st63{opacity:0.2581;fill:none;stroke:#CACAC9;stroke-miterlimit:10;}
	.st64{opacity:0.2258;fill:none;stroke:#D0D0D0;stroke-miterlimit:10;}
	.st65{opacity:0.1935;fill:none;stroke:#D6D6D6;stroke-miterlimit:10;}
	.st66{opacity:0.1613;fill:none;stroke:#DDDDDC;stroke-miterlimit:10;}
	.st67{opacity:0.129;fill:none;stroke:#E3E3E3;stroke-miterlimit:10;}
	.st68{opacity:9.677419e-02;fill:none;stroke:#E9E9E9;stroke-miterlimit:10;}
	.st69{opacity:6.451613e-02;fill:none;stroke:#EFEFEF;stroke-miterlimit:10;}
	.st70{opacity:3.225806e-02;fill:none;stroke:#F6F6F6;stroke-miterlimit:10;}
	.st71{opacity:0;fill:none;stroke:#FFFFFF;stroke-miterlimit:10;}
	.st72{fill:none;stroke:#333333;stroke-miterlimit:10;}
	.st73{opacity:0.9677;fill:none;stroke:#5D5C5C;stroke-miterlimit:10;}
	.st74{opacity:0.9355;fill:none;stroke:#626261;stroke-miterlimit:10;}
	.st75{opacity:0.9032;fill:none;stroke:#686767;stroke-miterlimit:10;}
	.st76{opacity:0.871;fill:none;stroke:#6D6D6C;stroke-miterlimit:10;}
	.st77{opacity:0.8387;fill:none;stroke:#727272;stroke-miterlimit:10;}
	.st78{opacity:0.8065;fill:none;stroke:#787877;stroke-miterlimit:10;}
	.st79{opacity:0.7742;fill:none;stroke:#7D7D7C;stroke-miterlimit:10;}
	.st80{opacity:0.7419;fill:none;stroke:#808080;stroke-miterlimit:10;}
	.st81{opacity:0.7097;fill:none;stroke:#858584;stroke-miterlimit:10;}
	.st82{opacity:0.6774;fill:none;stroke:#8A8A8A;stroke-miterlimit:10;}
	.st83{opacity:0.6452;fill:none;stroke:#90908F;stroke-miterlimit:10;}
	.st84{opacity:0.6129;fill:none;stroke:#959595;stroke-miterlimit:10;}
	.st85{opacity:0.5806;fill:none;stroke:#9B9A9A;stroke-miterlimit:10;}
	.st86{opacity:0.5484;fill:none;stroke:#A0A0A0;stroke-miterlimit:10;}
	.st87{opacity:0.5161;fill:none;stroke:#A5A5A5;stroke-miterlimit:10;}
	.st88{opacity:0.4839;fill:none;stroke:#ABABAA;stroke-miterlimit:10;}
	.st89{opacity:0.4516;fill:none;stroke:#B0B0B0;stroke-miterlimit:10;}
	.st90{opacity:0.4194;fill:none;stroke:#B6B6B5;stroke-miterlimit:10;}
	.st91{opacity:0.3871;fill:none;stroke:#BBBBBB;stroke-miterlimit:10;}
	.st92{opacity:0.3548;fill:none;stroke:#C1C0C0;stroke-miterlimit:10;}
	.st93{opacity:0.3226;fill:none;stroke:#C6C6C6;stroke-miterlimit:10;}
	.st94{opacity:0.2903;fill:none;stroke:#CBCBCB;stroke-miterlimit:10;}
	.st95{opacity:0.2581;fill:none;stroke:#D1D1D0;stroke-miterlimit:10;}
	.st96{opacity:0.2258;fill:none;stroke:#D6D6D6;stroke-miterlimit:10;}
	.st97{opacity:0.1935;fill:none;stroke:#DCDBDB;stroke-miterlimit:10;}
	.st98{opacity:0.1613;fill:none;stroke:#E1E1E1;stroke-miterlimit:10;}
	.st99{opacity:0.129;fill:none;stroke:#E6E6E6;stroke-miterlimit:10;}
	.st100{opacity:9.677419e-02;fill:none;stroke:#ECECEC;stroke-miterlimit:10;}
	.st101{opacity:6.451613e-02;fill:none;stroke:#F1F1F1;stroke-miterlimit:10;}
	.st102{opacity:3.225806e-02;fill:none;stroke:#F7F7F7;stroke-miterlimit:10;}
	.st103{fill:#B5B5B5;}
	.st104{fill:#666666;}
	.st105{fill:#3A3A3A;}
	.st106{fill:#E6E6E6;}
	.st107{fill:#C9C9C9;}
	.st108{filter:url(#Adobe_OpacityMaskFilter_1_);}
	.st109{mask:url(#prefix__b_1_);fill:#02979B;}
	.st110{clip-path:url(#SVGID_117_);}
	.st111{clip-path:url(#SVGID_119_);}
	.st112{clip-path:url(#SVGID_121_);}
	.st113{clip-path:url(#SVGID_123_);}
	.st114{fill:url(#SVGID_204_);}
	.st115{clip-path:url(#SVGID_206_);}
	.st116{opacity:0.6452;fill:none;stroke:#818181;stroke-miterlimit:10;}
	.st117{opacity:0.6129;fill:none;stroke:#888887;stroke-miterlimit:10;}
	.st118{opacity:0.5806;fill:none;stroke:#8E8E8D;stroke-miterlimit:10;}
	.st119{opacity:0.5484;fill:none;stroke:#949494;stroke-miterlimit:10;}
	.st120{opacity:0.5161;fill:none;stroke:#9B9A9A;stroke-miterlimit:10;}
	.st121{opacity:0.4839;fill:none;stroke:#A1A1A0;stroke-miterlimit:10;}
	.st122{opacity:0.4516;fill:none;stroke:#A7A7A7;stroke-miterlimit:10;}
	.st123{opacity:0.4194;fill:none;stroke:#ADADAD;stroke-miterlimit:10;}
	.st124{opacity:0.3871;fill:none;stroke:#B4B4B3;stroke-miterlimit:10;}
	.st125{opacity:0.3548;fill:none;stroke:#BABABA;stroke-miterlimit:10;}
	.st126{opacity:0.3226;fill:none;stroke:#C0C0C0;stroke-miterlimit:10;}
	.st127{opacity:0.2903;fill:none;stroke:#C6C6C6;stroke-miterlimit:10;}
	.st128{opacity:0.2581;fill:none;stroke:#CDCDCC;stroke-miterlimit:10;}
	.st129{opacity:0.2258;fill:none;stroke:#D3D3D3;stroke-miterlimit:10;}
	.st130{opacity:0.1935;fill:none;stroke:#D9D9D9;stroke-miterlimit:10;}
	.st131{opacity:0.1613;fill:none;stroke:#E0E0DF;stroke-miterlimit:10;}
	.st132{opacity:6.451613e-02;fill:none;stroke:#F2F2F2;stroke-miterlimit:10;}
	.st133{opacity:3.225806e-02;fill:none;stroke:#F9F9F9;stroke-miterlimit:10;}
	.st134{opacity:0.7419;fill:none;stroke:#838282;stroke-miterlimit:10;}
	.st135{opacity:0.7097;fill:none;stroke:#888887;stroke-miterlimit:10;}
	.st136{opacity:0.6774;fill:none;stroke:#8D8D8D;stroke-miterlimit:10;}
	.st137{opacity:0.6452;fill:none;stroke:#939392;stroke-miterlimit:10;}
	.st138{opacity:0.6129;fill:none;stroke:#989898;stroke-miterlimit:10;}
	.st139{opacity:0.5806;fill:none;stroke:#9E9D9D;stroke-miterlimit:10;}
	.st140{opacity:0.5484;fill:none;stroke:#A3A3A3;stroke-miterlimit:10;}
	.st141{opacity:0.5161;fill:none;stroke:#A8A8A8;stroke-miterlimit:10;}
	.st142{opacity:0.4839;fill:none;stroke:#AEAEAD;stroke-miterlimit:10;}
	.st143{opacity:0.4516;fill:none;stroke:#B3B3B3;stroke-miterlimit:10;}
	.st144{opacity:0.4194;fill:none;stroke:#B9B9B8;stroke-miterlimit:10;}
	.st145{opacity:0.3871;fill:none;stroke:#BEBEBE;stroke-miterlimit:10;}
	.st146{opacity:0.3548;fill:none;stroke:#C4C3C3;stroke-miterlimit:10;}
	.st147{opacity:0.3226;fill:none;stroke:#C9C9C9;stroke-miterlimit:10;}
	.st148{opacity:0.2903;fill:none;stroke:#CECECE;stroke-miterlimit:10;}
	.st149{opacity:0.2581;fill:none;stroke:#D4D4D3;stroke-miterlimit:10;}
	.st150{opacity:0.2258;fill:none;stroke:#D9D9D9;stroke-miterlimit:10;}
	.st151{opacity:0.1935;fill:none;stroke:#DFDEDE;stroke-miterlimit:10;}
	.st152{opacity:0.1613;fill:none;stroke:#E4E4E4;stroke-miterlimit:10;}
	.st153{opacity:0.129;fill:none;stroke:#E9E9E9;stroke-miterlimit:10;}
	.st154{opacity:9.677419e-02;fill:none;stroke:#EFEFEF;stroke-miterlimit:10;}
	.st155{opacity:6.451613e-02;fill:none;stroke:#F4F4F4;stroke-miterlimit:10;}
	.st156{opacity:3.225806e-02;fill:none;stroke:#FAFAFA;stroke-miterlimit:10;}
	.st157{fill-rule:evenodd;clip-rule:evenodd;fill:none;stroke:#D4D4D4;stroke-width:0.25;stroke-miterlimit:10;}
	.st158{fill:none;stroke:#FFEA00;stroke-width:2;stroke-linecap:round;stroke-miterlimit:10;}
	.st159{fill:#FB3243;}
	.st160{display:none;}
	.st161{display:inline;opacity:0.5;}
	.st162{fill:#8DEB6F;}
</style>
<g id="Desktop">
	<g id="Footer">
	</g>
	<g id="Logos">
	</g>
	<g id="Horarios">
	</g>
	<g id="Formulario">
	</g>
	<g id="Tiempo">
	</g>
	<g id="Header">
	</g>
	<g id="Menú">
		<g>
			<g>
				<g>
					<g>
						<g>
							<path class="st0" d="M276.7,32.3c0,0-1.3,1.4-3.4,1.4c-2.3,0-4-1.8-4-4.3c0-2.4,1.7-4.1,4-4.1c1.9,0,3.1,1.2,3.2,1.2l0.3,0.3
								l1.2-1.9l-0.2-0.2c-0.1-0.1-1.6-1.7-4.6-1.7c-3.7,0-6.4,2.8-6.4,6.5c0,3.8,2.8,6.6,6.5,6.6c3.1,0,4.8-1.9,4.9-2l0.2-0.2
								l-1.4-1.8L276.7,32.3z"/>
							<path class="st0" d="M284.4,23.2l-4.5,12.6h2.5l1.2-3.4h3.9l1.2,3.4h2.6l-4.5-12.6H284.4z M286.8,30.3h-2.5l1.1-3.2
								c0-0.1,0.1-0.2,0.1-0.3c0,0.1,0.1,0.2,0.1,0.4L286.8,30.3z"/>
							<path class="st0" d="M298.4,23.2h-4.7v12.6h2.4v-4.4h2.3c2.4,0,4.1-1.7,4.1-4.2C302.6,24.9,300.9,23.2,298.4,23.2
								 M296.2,25.4h2c1.2,0,1.9,0.7,1.9,1.9c0,1.2-0.7,1.9-1.9,1.9h-2V25.4z"/>
							<polygon class="st0" points="308,30.6 312.3,30.6 312.3,28.4 308,28.4 308,25.4 313.3,25.4 313.3,23.2 305.6,23.2 
								305.6,35.9 313.5,35.9 313.5,33.6 308,33.6 							"/>
							<path class="st0" d="M325.9,32.3c0,0-1.3,1.4-3.4,1.4c-2.3,0-4-1.8-4-4.3c0-2.4,1.7-4.1,4-4.1c1.9,0,3.1,1.2,3.2,1.2l0.3,0.3
								l1.2-1.9l-0.2-0.2c-0.1-0.1-1.6-1.7-4.6-1.7c-3.7,0-6.4,2.8-6.4,6.5c0,3.8,2.8,6.6,6.5,6.6c3.1,0,4.8-1.9,4.9-2l0.2-0.2
								l-1.4-1.8L325.9,32.3z"/>
							<polygon class="st0" points="333.1,33.6 333.1,30.6 337.3,30.6 337.3,28.4 333.1,28.4 333.1,25.4 338.3,25.4 338.3,23.2 
								330.6,23.2 330.6,35.9 338.6,35.9 338.6,33.6 							"/>
							<path class="st0" d="M268,37.8c0.6,0,1,0.3,1,0.3l-0.2,0.3c0,0-0.3-0.3-0.8-0.3c-0.6,0-1,0.4-1,1c0,0.6,0.4,1,1,1
								c0.5,0,0.8-0.3,0.8-0.3l0.2,0.3c0,0-0.4,0.4-1,0.4c-0.8,0-1.3-0.6-1.3-1.4C266.6,38.4,267.2,37.8,268,37.8"/>
							<path class="st0" d="M270.4,39.3L270.4,39.3L270.4,39.3c0.1-0.3-0.1-0.4-0.3-0.4c-0.3,0-0.5,0.2-0.5,0.2l-0.1-0.3
								c0,0,0.3-0.2,0.7-0.2c0.5,0,0.7,0.3,0.7,0.7v1.2h-0.3v-0.2c0-0.1,0-0.1,0-0.1h0c0,0-0.2,0.4-0.6,0.4c-0.3,0-0.6-0.2-0.6-0.6
								C269.3,39.3,270.1,39.3,270.4,39.3 M270,40.2c0.3,0,0.5-0.3,0.5-0.6v-0.1h-0.1c-0.3,0-0.8,0-0.8,0.4
								C269.6,40.1,269.7,40.2,270,40.2 M270.2,37.9h0.4l-0.4,0.5h-0.3L270.2,37.9z"/>
							<path class="st0" d="M271.4,38.6h0.3v0.2c0,0.1,0,0.1,0,0.1h0c0.1-0.2,0.4-0.4,0.6-0.4c0.3,0,0.5,0.1,0.6,0.4h0
								c0.1-0.2,0.4-0.4,0.7-0.4c0.4,0,0.6,0.2,0.6,0.7v1.2h-0.4v-1.1c0-0.3-0.1-0.5-0.3-0.5c-0.3,0-0.5,0.2-0.5,0.5
								c0,0.1,0,0.2,0,0.3v0.9h-0.4v-1.1c0-0.2,0-0.5-0.3-0.5c-0.3,0-0.5,0.2-0.5,0.5c0,0.1,0,0.2,0,0.2v0.9h-0.4V38.6z"/>
							<path class="st0" d="M275.7,39.3L275.7,39.3L275.7,39.3c0.1-0.3-0.1-0.4-0.3-0.4c-0.3,0-0.5,0.2-0.5,0.2l-0.1-0.3
								c0,0,0.3-0.2,0.7-0.2c0.5,0,0.7,0.3,0.7,0.7v1.2h-0.3v-0.2c0-0.1,0-0.1,0-0.1h0c0,0-0.2,0.4-0.6,0.4c-0.3,0-0.6-0.2-0.6-0.6
								C274.6,39.3,275.4,39.3,275.7,39.3 M275.3,40.2c0.3,0,0.5-0.3,0.5-0.6v-0.1h-0.1c-0.3,0-0.8,0-0.8,0.4
								C274.9,40.1,275.1,40.2,275.3,40.2"/>
							<path class="st0" d="M276.7,38.6h0.3v0.3c0,0.1,0,0.1,0,0.1h0c0.1-0.3,0.3-0.5,0.6-0.5c0,0,0.1,0,0.1,0V39c0,0,0,0-0.1,0
								c-0.2,0-0.4,0.2-0.5,0.4c0,0.1,0,0.2,0,0.3v0.8h-0.4V38.6z"/>
							<path class="st0" d="M279.1,39.3L279.1,39.3L279.1,39.3c0.1-0.3-0.1-0.4-0.3-0.4c-0.3,0-0.5,0.2-0.5,0.2l-0.1-0.3
								c0,0,0.3-0.2,0.7-0.2c0.5,0,0.7,0.3,0.7,0.7v1.2h-0.3v-0.2c0-0.1,0-0.1,0-0.1h0c0,0-0.2,0.4-0.6,0.4c-0.3,0-0.6-0.2-0.6-0.6
								C277.9,39.3,278.7,39.3,279.1,39.3 M278.6,40.2c0.3,0,0.5-0.3,0.5-0.6v-0.1H279c-0.3,0-0.8,0-0.8,0.4
								C278.3,40.1,278.4,40.2,278.6,40.2"/>
							<path class="st0" d="M281.1,37.9h1c0.5,0,0.8,0.3,0.8,0.8c0,0.5-0.3,0.8-0.8,0.8h-0.6v1h-0.4V37.9z M281.9,39.2
								c0.3,0,0.5-0.2,0.5-0.5c0-0.3-0.2-0.5-0.5-0.5h-0.5v1H281.9z"/>
							<path class="st0" d="M284,38.6c0.5,0,0.8,0.4,0.8,0.9c0,0,0,0.2,0,0.2h-1.4c0,0.4,0.3,0.6,0.6,0.6c0.3,0,0.6-0.2,0.6-0.2
								l0.1,0.3c0,0-0.3,0.3-0.7,0.3c-0.6,0-1-0.4-1-1C283.1,39,283.5,38.6,284,38.6 M284.5,39.3c0-0.3-0.2-0.5-0.5-0.5
								c-0.3,0-0.5,0.2-0.5,0.5H284.5z"/>
							<path class="st0" d="M285.3,38.6h0.3v0.3c0,0.1,0,0.1,0,0.1h0c0.1-0.3,0.3-0.5,0.6-0.5c0,0,0.1,0,0.1,0V39c0,0,0,0-0.1,0
								c-0.2,0-0.4,0.2-0.5,0.4c0,0.1,0,0.2,0,0.3v0.8h-0.4V38.6z"/>
							<path class="st0" d="M286.6,38.6h0.4v1.1c0,0.3,0.1,0.5,0.4,0.5c0.4,0,0.6-0.3,0.6-0.7v-0.9h0.4v1.9H288v-0.2
								c0-0.1,0-0.1,0-0.1h0c-0.1,0.2-0.3,0.4-0.7,0.4c-0.4,0-0.6-0.2-0.6-0.7V38.6z"/>
							<path class="st0" d="M289.8,39.3L289.8,39.3L289.8,39.3c0.1-0.3-0.1-0.4-0.3-0.4c-0.3,0-0.5,0.2-0.5,0.2l-0.1-0.3
								c0,0,0.3-0.2,0.7-0.2c0.5,0,0.7,0.3,0.7,0.7v1.2H290v-0.2c0-0.1,0-0.1,0-0.1h0c0,0-0.2,0.4-0.6,0.4c-0.3,0-0.6-0.2-0.6-0.6
								C288.7,39.3,289.5,39.3,289.8,39.3 M289.4,40.2c0.3,0,0.5-0.3,0.5-0.6v-0.1h-0.1c-0.3,0-0.8,0-0.8,0.4
								C289.1,40.1,289.2,40.2,289.4,40.2"/>
							<path class="st0" d="M290.8,38.6h0.3v0.2c0,0.1,0,0.1,0,0.1h0c0.1-0.2,0.3-0.4,0.7-0.4c0.4,0,0.6,0.2,0.6,0.7v1.2h-0.4v-1.1
								c0-0.3-0.1-0.5-0.4-0.5c-0.3,0-0.5,0.2-0.6,0.5c0,0.1,0,0.2,0,0.3v0.9h-0.4V38.6z"/>
							<path class="st0" d="M294,39.3L294,39.3L294,39.3c0.1-0.3-0.1-0.4-0.3-0.4c-0.3,0-0.5,0.2-0.5,0.2l-0.1-0.3
								c0,0,0.3-0.2,0.7-0.2c0.5,0,0.7,0.3,0.7,0.7v1.2h-0.3v-0.2c0-0.1,0-0.1,0-0.1h0c0,0-0.2,0.4-0.6,0.4c-0.3,0-0.6-0.2-0.6-0.6
								C292.9,39.3,293.7,39.3,294,39.3 M293.6,40.2c0.3,0,0.5-0.3,0.5-0.6v-0.1H294c-0.3,0-0.8,0-0.8,0.4
								C293.3,40.1,293.4,40.2,293.6,40.2"/>
							<path class="st0" d="M296.7,38.6c0.4,0,0.6,0.3,0.6,0.3h0c0,0,0-0.1,0-0.1v-0.9h0.4v2.6h-0.3v-0.2c0-0.1,0-0.1,0-0.1h0
								c0,0-0.2,0.3-0.6,0.3c-0.5,0-0.8-0.4-0.8-1C295.8,39,296.2,38.6,296.7,38.6 M296.7,40.2c0.3,0,0.5-0.2,0.5-0.7
								c0-0.3-0.2-0.7-0.5-0.7c-0.3,0-0.5,0.2-0.5,0.7C296.2,40,296.4,40.2,296.7,40.2"/>
							<path class="st0" d="M299,38.6c0.5,0,0.8,0.4,0.8,0.9c0,0,0,0.2,0,0.2h-1.4c0,0.4,0.3,0.6,0.6,0.6c0.3,0,0.6-0.2,0.6-0.2
								l0.1,0.3c0,0-0.3,0.3-0.7,0.3c-0.6,0-1-0.4-1-1C298.1,39,298.5,38.6,299,38.6 M299.4,39.3c0-0.3-0.2-0.5-0.5-0.5
								c-0.3,0-0.5,0.2-0.5,0.5H299.4z"/>
							<path class="st0" d="M302.4,37.8c0.6,0,1,0.3,1,0.3l-0.2,0.3c0,0-0.3-0.3-0.8-0.3c-0.6,0-1,0.4-1,1c0,0.6,0.4,1,1,1
								c0.5,0,0.8-0.3,0.8-0.3l0.2,0.3c0,0-0.4,0.4-1,0.4c-0.8,0-1.3-0.6-1.3-1.4C301.1,38.4,301.6,37.8,302.4,37.8"/>
							<path class="st0" d="M304.7,38.6c0.6,0,1,0.4,1,1c0,0.6-0.5,1-1,1c-0.6,0-1-0.4-1-1C303.7,39,304.2,38.6,304.7,38.6
								 M304.7,40.2c0.4,0,0.6-0.3,0.6-0.7c0-0.4-0.3-0.7-0.6-0.7c-0.4,0-0.6,0.3-0.6,0.7C304.1,39.9,304.4,40.2,304.7,40.2"/>
							<path class="st0" d="M306.2,38.6h0.3v0.2c0,0.1,0,0.1,0,0.1h0c0.1-0.2,0.4-0.4,0.6-0.4c0.3,0,0.5,0.1,0.6,0.4h0
								c0.1-0.2,0.4-0.4,0.7-0.4c0.4,0,0.6,0.2,0.6,0.7v1.2h-0.4v-1.1c0-0.3-0.1-0.5-0.3-0.5c-0.3,0-0.5,0.2-0.5,0.5
								c0,0.1,0,0.2,0,0.3v0.9h-0.4v-1.1c0-0.2,0-0.5-0.3-0.5c-0.3,0-0.5,0.2-0.5,0.5c0,0.1,0,0.2,0,0.2v0.9h-0.4V38.6z"/>
							<path class="st0" d="M310.3,38.6c0.5,0,0.8,0.4,0.8,0.9c0,0,0,0.2,0,0.2h-1.4c0,0.4,0.3,0.6,0.6,0.6c0.3,0,0.6-0.2,0.6-0.2
								l0.1,0.3c0,0-0.3,0.3-0.7,0.3c-0.6,0-1-0.4-1-1C309.4,39,309.8,38.6,310.3,38.6 M310.8,39.3c0-0.3-0.2-0.5-0.5-0.5
								c-0.3,0-0.5,0.2-0.5,0.5H310.8z"/>
							<path class="st0" d="M311.6,38.6h0.3v0.3c0,0.1,0,0.1,0,0.1h0c0.1-0.3,0.3-0.5,0.6-0.5c0,0,0.1,0,0.1,0V39c0,0,0,0-0.1,0
								c-0.2,0-0.4,0.2-0.5,0.4c0,0.1,0,0.2,0,0.3v0.8h-0.4V38.6z"/>
							<path class="st0" d="M313.8,38.6c0.5,0,0.7,0.3,0.7,0.3l-0.2,0.3c0,0-0.2-0.2-0.5-0.2c-0.4,0-0.7,0.3-0.7,0.7
								c0,0.4,0.3,0.7,0.7,0.7c0.3,0,0.6-0.3,0.6-0.3l0.1,0.3c0,0-0.3,0.3-0.7,0.3c-0.6,0-1-0.4-1-1C312.8,39,313.2,38.6,313.8,38.6
								"/>
							<path class="st0" d="M315,37.9h0.4v0.4H315V37.9z M315,38.6h0.4v1.9H315V38.6z"/>
							<path class="st0" d="M316.8,38.6c0.6,0,1,0.4,1,1c0,0.6-0.5,1-1,1c-0.6,0-1-0.4-1-1C315.8,39,316.2,38.6,316.8,38.6
								 M316.8,40.2c0.4,0,0.6-0.3,0.6-0.7c0-0.4-0.3-0.7-0.6-0.7c-0.4,0-0.6,0.3-0.6,0.7C316.1,39.9,316.4,40.2,316.8,40.2"/>
							<polygon class="st0" points="319.2,37.9 320.8,37.9 320.8,38.2 319.6,38.2 319.6,39 320.5,39 320.5,39.3 319.6,39.3 
								319.6,40.2 320.8,40.2 320.8,40.5 319.2,40.5 							"/>
							<path class="st0" d="M321.3,37.9h0.4v2c0,0.2,0.1,0.3,0.2,0.3c0,0,0.1,0,0.1,0v0.3c0,0-0.1,0-0.1,0c-0.2,0-0.5-0.1-0.5-0.5
								V37.9z"/>
							<path class="st0" d="M323.1,38.6c0.5,0,0.8,0.4,0.8,0.9c0,0,0,0.2,0,0.2h-1.4c0,0.4,0.3,0.6,0.6,0.6c0.3,0,0.6-0.2,0.6-0.2
								l0.1,0.3c0,0-0.3,0.3-0.7,0.3c-0.6,0-1-0.4-1-1C322.1,39,322.5,38.6,323.1,38.6 M323.5,39.3c0-0.3-0.2-0.5-0.5-0.5
								c-0.3,0-0.5,0.2-0.5,0.5H323.5z"/>
							<path class="st0" d="M325.2,38.6c0.5,0,0.7,0.3,0.7,0.3l-0.2,0.3c0,0-0.2-0.2-0.5-0.2c-0.4,0-0.7,0.3-0.7,0.7
								c0,0.4,0.3,0.7,0.7,0.7c0.3,0,0.6-0.3,0.6-0.3l0.1,0.3c0,0-0.3,0.3-0.7,0.3c-0.6,0-1-0.4-1-1C324.2,39,324.6,38.6,325.2,38.6
								"/>
							<path class="st0" d="M326.4,38.9h-0.2v-0.3h0.3v-0.5h0.3v0.5h0.5v0.3h-0.5v0.8c0,0.4,0.3,0.4,0.4,0.4c0.1,0,0.1,0,0.1,0v0.3
								c0,0-0.1,0-0.1,0c-0.2,0-0.7-0.1-0.7-0.7V38.9z"/>
							<path class="st0" d="M327.7,38.6h0.3v0.3c0,0.1,0,0.1,0,0.1h0c0.1-0.3,0.3-0.5,0.6-0.5c0,0,0.1,0,0.1,0V39c0,0,0,0-0.1,0
								c-0.2,0-0.4,0.2-0.5,0.4c0,0.1,0,0.2,0,0.3v0.8h-0.4V38.6z"/>
							<path class="st0" d="M329.9,38.6c0.6,0,1,0.4,1,1c0,0.6-0.5,1-1,1c-0.6,0-1-0.4-1-1C328.9,39,329.4,38.6,329.9,38.6
								 M329.9,40.2c0.4,0,0.6-0.3,0.6-0.7c0-0.4-0.3-0.7-0.6-0.7c-0.4,0-0.6,0.3-0.6,0.7C329.3,39.9,329.6,40.2,329.9,40.2
								 M330,37.9h0.4l-0.4,0.5h-0.3L330,37.9z"/>
							<path class="st0" d="M331.4,38.6h0.3v0.2c0,0.1,0,0.1,0,0.1h0c0.1-0.2,0.3-0.4,0.7-0.4c0.4,0,0.6,0.2,0.6,0.7v1.2h-0.4v-1.1
								c0-0.3-0.1-0.5-0.4-0.5c-0.3,0-0.5,0.2-0.6,0.5c0,0.1,0,0.2,0,0.3v0.9h-0.4V38.6z"/>
							<path class="st0" d="M333.6,37.9h0.4v0.4h-0.4V37.9z M333.6,38.6h0.4v1.9h-0.4V38.6z"/>
							<path class="st0" d="M335.4,38.6c0.5,0,0.7,0.3,0.7,0.3l-0.2,0.3c0,0-0.2-0.2-0.5-0.2c-0.4,0-0.7,0.3-0.7,0.7
								c0,0.4,0.3,0.7,0.7,0.7c0.3,0,0.6-0.3,0.6-0.3l0.1,0.3c0,0-0.3,0.3-0.7,0.3c-0.6,0-1-0.4-1-1C334.4,39,334.8,38.6,335.4,38.6
								"/>
							<path class="st0" d="M337.4,38.6c0.6,0,1,0.4,1,1c0,0.6-0.5,1-1,1c-0.6,0-1-0.4-1-1C336.4,39,336.8,38.6,337.4,38.6
								 M337.4,40.2c0.4,0,0.6-0.3,0.6-0.7c0-0.4-0.3-0.7-0.6-0.7c-0.4,0-0.6,0.3-0.6,0.7C336.8,39.9,337,40.2,337.4,40.2"/>
							<path class="st0" d="M249.8,29.8c1.2,1.2,2,2.9,2,4.8c0,3.8-3.1,6.8-6.8,6.8c-1.9,0-3.6-0.8-4.8-2l-3.7,3.7
								c2.2,2.2,5.2,3.5,8.5,3.5c6.6,0,12-5.4,12-12c0-3.3-1.3-6.3-3.5-8.5L249.8,29.8z"/>
							<path class="st2" d="M244.2,27.9c0-3.8,3.1-6.8,6.8-6.8c1.9,0,3.6,0.8,4.8,2l3.7-3.7c-2.2-2.2-5.2-3.5-8.5-3.5
								c-6.6,0-12,5.4-12,12c0,3.3,1.3,6.3,3.5,8.5l3.7-3.7C245,31.5,244.2,29.8,244.2,27.9"/>
						</g>
						<g>
							<path class="st3" d="M341,24.4c0-0.1,0-0.2,0-0.3c0,0,0,0,0,0c0-0.1,0-0.2,0.1-0.4c0.3-1.1,1.3-1.8,2.5-1.6
								c0.5,0.1,0.9,0.3,1.3,0.7c0.3,0.3,0.5,0.7,0.6,1.2c0,0,0,0.1,0,0.1c0,0.1,0,0.2,0,0.3c0,0,0,0,0,0c0,0.1,0,0.1,0,0.2
								c-0.1,0.5-0.3,0.9-0.7,1.3c-0.3,0.3-0.7,0.5-1.2,0.5c0,0-0.1,0-0.1,0c-0.1,0-0.2,0-0.3,0c0,0,0,0,0,0c-0.1,0-0.1,0-0.2,0
								c-0.5-0.1-0.9-0.3-1.3-0.7c-0.3-0.3-0.5-0.7-0.5-1.2C341,24.5,341,24.4,341,24.4z M343.2,26.2c1.1,0,1.9-0.9,1.9-1.9
								c0-1.1-0.8-1.9-1.9-1.9c-1.1,0-1.9,0.8-1.9,1.9C341.2,25.3,342.1,26.2,343.2,26.2z"/>
							<path class="st3" d="M342.2,23.1C342.2,23.1,342.2,23.1,342.2,23.1c0.3,0,0.6,0,0.9,0c0.2,0,0.3,0,0.5,0.1
								c0.2,0.1,0.3,0.1,0.3,0.3c0.1,0.2,0.1,0.4,0,0.6c-0.1,0.1-0.2,0.2-0.3,0.3c0,0,0,0,0,0c0.2,0.1,0.3,0.2,0.4,0.4
								c0.1,0.2,0.2,0.5,0.3,0.7c0,0,0,0,0,0c0,0,0,0,0,0c-0.2,0-0.4,0-0.6,0c0,0,0,0-0.1,0c-0.1-0.2-0.2-0.4-0.3-0.6c0,0,0,0,0,0
								c-0.1-0.1-0.2-0.2-0.4-0.2c0,0-0.1,0-0.1,0c0,0.3,0,0.6,0,0.9c-0.2,0-0.4,0-0.6,0C342.2,24.6,342.2,23.8,342.2,23.1z
								 M342.8,23.5c0,0.2,0,0.4,0,0.6c0.1,0,0.3,0,0.4,0c0.1,0,0.2-0.1,0.2-0.2c0,0,0-0.1,0-0.1c0-0.1-0.1-0.2-0.2-0.2
								C343.1,23.5,342.9,23.5,342.8,23.5z"/>
						</g>
					</g>
					<g>
						<path class="st0" d="M241.5,9.8c-0.5-0.5-0.8-1.3-0.8-2.4V3.1c0-0.1,0-0.3,0.1-0.3c0.1-0.1,0.2-0.1,0.3-0.1
							c0.1,0,0.2,0,0.3,0.1c0.1,0.1,0.1,0.2,0.1,0.3v4.4c0,0.8,0.2,1.3,0.6,1.7c0.4,0.4,0.9,0.6,1.7,0.6c0.7,0,1.3-0.2,1.6-0.6
							c0.4-0.4,0.6-1,0.6-1.7V3.1c0-0.1,0-0.3,0.1-0.3s0.2-0.1,0.3-0.1c0.1,0,0.3,0,0.3,0.1c0.1,0.1,0.1,0.2,0.1,0.3v4.4
							c0,1-0.3,1.8-0.8,2.4c-0.5,0.5-1.3,0.8-2.3,0.8C242.8,10.7,242.1,10.4,241.5,9.8z"/>
						<path class="st0" d="M253.4,7.2v3c0,0.1,0,0.3-0.1,0.3c-0.1,0.1-0.2,0.1-0.3,0.1s-0.3,0-0.3-0.1c-0.1-0.1-0.1-0.2-0.1-0.3v-3
							c0-0.5-0.1-0.9-0.3-1.1c-0.2-0.2-0.5-0.3-0.9-0.3c-0.5,0-0.9,0.2-1.2,0.5s-0.4,0.7-0.4,1.2v2.7c0,0.1,0,0.3-0.1,0.3
							c-0.1,0.1-0.2,0.1-0.3,0.1s-0.3,0-0.3-0.1c-0.1-0.1-0.1-0.2-0.1-0.3V5.5c0-0.1,0-0.2,0.1-0.3c0.1-0.1,0.2-0.1,0.3-0.1
							c0.1,0,0.2,0,0.3,0.1c0.1,0.1,0.1,0.2,0.1,0.3V6c0.2-0.3,0.4-0.6,0.7-0.8c0.3-0.2,0.7-0.3,1.1-0.3
							C252.8,5,253.4,5.7,253.4,7.2z"/>
						<path class="st0" d="M259.3,7.1v3c0,0.1,0,0.2-0.1,0.3s-0.2,0.1-0.3,0.1s-0.2,0-0.3-0.1c-0.1-0.1-0.1-0.2-0.1-0.3V9.6
							c-0.1,0.3-0.4,0.6-0.6,0.7c-0.3,0.2-0.6,0.3-1,0.3c-0.3,0-0.7-0.1-1-0.2c-0.3-0.1-0.5-0.3-0.7-0.6c-0.2-0.3-0.3-0.5-0.3-0.8
							c0-0.4,0.1-0.7,0.3-1c0.2-0.2,0.5-0.4,1-0.5c0.5-0.1,1.1-0.2,2-0.2h0.2V7c0-0.4-0.1-0.8-0.3-1c-0.2-0.2-0.5-0.3-0.9-0.3
							c-0.5,0-1,0.1-1.5,0.4c-0.2,0.1-0.3,0.2-0.4,0.2c-0.1,0-0.2,0-0.2-0.1S255,6.1,255,6c0-0.1,0-0.2,0.1-0.3
							c0.1-0.1,0.2-0.2,0.3-0.2c0.3-0.1,0.6-0.3,0.9-0.4c0.3-0.1,0.7-0.1,1-0.1C258.7,5,259.3,5.7,259.3,7.1z M258,9.5
							c0.3-0.3,0.4-0.7,0.4-1.2V8h-0.2c-0.7,0-1.2,0-1.5,0.1s-0.6,0.1-0.7,0.3c-0.1,0.1-0.2,0.3-0.2,0.6c0,0.3,0.1,0.5,0.3,0.7
							s0.5,0.3,0.8,0.3C257.4,9.9,257.7,9.8,258,9.5z"/>
						<path class="st0" d="M263.9,3.7c-0.1-0.1-0.2-0.2-0.2-0.4c0-0.2,0.1-0.3,0.2-0.4c0.1-0.1,0.3-0.2,0.4-0.2s0.3,0.1,0.4,0.2
							c0.1,0.1,0.2,0.2,0.2,0.4c0,0.2-0.1,0.3-0.2,0.4c-0.1,0.1-0.3,0.2-0.4,0.2S264,3.8,263.9,3.7z M264,10.5
							c-0.1-0.1-0.1-0.2-0.1-0.3V5.5c0-0.1,0-0.3,0.1-0.3s0.2-0.1,0.3-0.1s0.2,0,0.3,0.1c0.1,0.1,0.1,0.2,0.1,0.3v4.7
							c0,0.1,0,0.3-0.1,0.3c-0.1,0.1-0.2,0.1-0.3,0.1S264.1,10.6,264,10.5z"/>
						<path class="st0" d="M271.1,7.2v3c0,0.1,0,0.3-0.1,0.3c-0.1,0.1-0.2,0.1-0.3,0.1s-0.3,0-0.3-0.1c-0.1-0.1-0.1-0.2-0.1-0.3v-3
							c0-0.5-0.1-0.9-0.3-1.1c-0.2-0.2-0.5-0.3-0.9-0.3c-0.5,0-0.9,0.2-1.2,0.5s-0.4,0.7-0.4,1.2v2.7c0,0.1,0,0.3-0.1,0.3
							c-0.1,0.1-0.2,0.1-0.3,0.1s-0.3,0-0.3-0.1c-0.1-0.1-0.1-0.2-0.1-0.3V5.5c0-0.1,0-0.2,0.1-0.3c0.1-0.1,0.2-0.1,0.3-0.1
							c0.1,0,0.2,0,0.3,0.1c0.1,0.1,0.1,0.2,0.1,0.3V6c0.2-0.3,0.4-0.6,0.7-0.8c0.3-0.2,0.7-0.3,1.1-0.3
							C270.5,5,271.1,5.7,271.1,7.2z"/>
						<path class="st0" d="M272.8,3.7c-0.1-0.1-0.2-0.2-0.2-0.4c0-0.2,0.1-0.3,0.2-0.4c0.1-0.1,0.3-0.2,0.4-0.2s0.3,0.1,0.4,0.2
							c0.1,0.1,0.2,0.2,0.2,0.4c0,0.2-0.1,0.3-0.2,0.4c-0.1,0.1-0.3,0.2-0.4,0.2S272.9,3.8,272.8,3.7z M272.9,10.5
							c-0.1-0.1-0.1-0.2-0.1-0.3V5.5c0-0.1,0-0.3,0.1-0.3s0.2-0.1,0.3-0.1s0.2,0,0.3,0.1c0.1,0.1,0.1,0.2,0.1,0.3v4.7
							c0,0.1,0,0.3-0.1,0.3c-0.1,0.1-0.2,0.1-0.3,0.1S273,10.6,272.9,10.5z"/>
						<path class="st0" d="M276.3,10.3c-0.4-0.2-0.7-0.6-0.9-1c-0.2-0.4-0.3-0.9-0.3-1.5s0.1-1.1,0.3-1.5s0.5-0.8,0.9-1
							s0.8-0.4,1.4-0.4c0.3,0,0.6,0,0.8,0.1c0.3,0.1,0.5,0.2,0.7,0.3c0.1,0.1,0.2,0.2,0.3,0.3s0.1,0.2,0.1,0.3s0,0.2-0.1,0.3
							s-0.1,0.1-0.2,0.1c-0.1,0-0.1,0-0.2,0c-0.1,0-0.1-0.1-0.2-0.1s-0.1,0-0.1-0.1c-0.2-0.1-0.4-0.2-0.6-0.3
							c-0.2-0.1-0.4-0.1-0.6-0.1c-0.5,0-1,0.2-1.3,0.6c-0.3,0.4-0.5,0.9-0.5,1.5c0,0.7,0.2,1.2,0.5,1.5c0.3,0.4,0.7,0.5,1.3,0.5
							c0.3,0,0.5,0,0.7-0.1c0.2-0.1,0.4-0.2,0.6-0.3c0.1-0.1,0.2-0.1,0.2-0.1s0.1-0.1,0.2-0.1c0.1,0,0.2,0,0.2,0.1s0.1,0.2,0.1,0.3
							c0,0.1,0,0.2-0.1,0.3c-0.1,0.1-0.1,0.2-0.3,0.3c-0.2,0.1-0.5,0.3-0.8,0.3s-0.6,0.1-0.9,0.1C277.1,10.6,276.7,10.5,276.3,10.3z
							"/>
						<path class="st0" d="M280.7,3.7c-0.1-0.1-0.2-0.2-0.2-0.4c0-0.2,0.1-0.3,0.2-0.4c0.1-0.1,0.3-0.2,0.4-0.2s0.3,0.1,0.4,0.2
							c0.1,0.1,0.2,0.2,0.2,0.4c0,0.2-0.1,0.3-0.2,0.4c-0.1,0.1-0.3,0.2-0.4,0.2S280.8,3.8,280.7,3.7z M280.8,10.5
							c-0.1-0.1-0.1-0.2-0.1-0.3V5.5c0-0.1,0-0.3,0.1-0.3S281,5,281.2,5s0.2,0,0.3,0.1c0.1,0.1,0.1,0.2,0.1,0.3v4.7
							c0,0.1,0,0.3-0.1,0.3c-0.1,0.1-0.2,0.1-0.3,0.1S280.9,10.6,280.8,10.5z"/>
						<path class="st0" d="M287.6,7.1v3c0,0.1,0,0.2-0.1,0.3s-0.2,0.1-0.3,0.1s-0.2,0-0.3-0.1c-0.1-0.1-0.1-0.2-0.1-0.3V9.6
							c-0.1,0.3-0.4,0.6-0.6,0.7c-0.3,0.2-0.6,0.3-1,0.3c-0.3,0-0.7-0.1-1-0.2c-0.3-0.1-0.5-0.3-0.7-0.6c-0.2-0.3-0.3-0.5-0.3-0.8
							c0-0.4,0.1-0.7,0.3-1c0.2-0.2,0.5-0.4,1-0.5c0.5-0.1,1.1-0.2,2-0.2h0.2V7c0-0.4-0.1-0.8-0.3-1c-0.2-0.2-0.5-0.3-0.9-0.3
							c-0.5,0-1,0.1-1.5,0.4c-0.2,0.1-0.3,0.2-0.4,0.2c-0.1,0-0.2,0-0.2-0.1s-0.1-0.2-0.1-0.3c0-0.1,0-0.2,0.1-0.3
							c0.1-0.1,0.2-0.2,0.3-0.2c0.3-0.1,0.6-0.3,0.9-0.4c0.3-0.1,0.7-0.1,1-0.1C286.9,5,287.6,5.7,287.6,7.1z M286.2,9.5
							c0.3-0.3,0.4-0.7,0.4-1.2V8h-0.2c-0.7,0-1.2,0-1.5,0.1s-0.6,0.1-0.7,0.3c-0.1,0.1-0.2,0.3-0.2,0.6c0,0.3,0.1,0.5,0.3,0.7
							s0.5,0.3,0.8,0.3C285.6,9.9,286,9.8,286.2,9.5z"/>
						<path class="st0" d="M292.1,10.3c0,0.1,0,0.2-0.1,0.3c-0.1,0.1-0.2,0.1-0.4,0.1l-0.3,0c-0.6,0-1-0.2-1.3-0.5
							c-0.3-0.3-0.4-0.8-0.4-1.4V5.8h-0.7c-0.1,0-0.2,0-0.3-0.1c-0.1-0.1-0.1-0.1-0.1-0.3c0-0.1,0-0.2,0.1-0.3s0.2-0.1,0.3-0.1h0.7
							V3.9c0-0.1,0-0.3,0.1-0.3c0.1-0.1,0.2-0.1,0.3-0.1c0.1,0,0.2,0,0.3,0.1c0.1,0.1,0.1,0.2,0.1,0.3v1.3h1.2c0.1,0,0.2,0,0.3,0.1
							s0.1,0.2,0.1,0.3c0,0.1,0,0.2-0.1,0.3c-0.1,0.1-0.2,0.1-0.3,0.1h-1.2v2.8c0,0.4,0.1,0.7,0.3,0.9c0.2,0.2,0.4,0.3,0.8,0.3
							l0.3,0C292,9.9,292.1,10,292.1,10.3z"/>
						<path class="st0" d="M293,3.7c-0.1-0.1-0.2-0.2-0.2-0.4c0-0.2,0.1-0.3,0.2-0.4c0.1-0.1,0.3-0.2,0.4-0.2s0.3,0.1,0.4,0.2
							c0.1,0.1,0.2,0.2,0.2,0.4c0,0.2-0.1,0.3-0.2,0.4c-0.1,0.1-0.3,0.2-0.4,0.2S293.1,3.8,293,3.7z M293.1,10.5
							c-0.1-0.1-0.1-0.2-0.1-0.3V5.5c0-0.1,0-0.3,0.1-0.3s0.2-0.1,0.3-0.1s0.2,0,0.3,0.1c0.1,0.1,0.1,0.2,0.1,0.3v4.7
							c0,0.1,0,0.3-0.1,0.3c-0.1,0.1-0.2,0.1-0.3,0.1S293.2,10.6,293.1,10.5z"/>
						<path class="st0" d="M299.9,5c0.1,0,0.2,0,0.3,0.1s0.1,0.2,0.1,0.3c0,0.1,0,0.1,0,0.2l-2.2,4.7c0,0.1-0.1,0.2-0.2,0.2
							c-0.1,0.1-0.2,0.1-0.3,0.1c-0.1,0-0.2,0-0.3-0.1s-0.2-0.1-0.2-0.2L295,5.6c0-0.1,0-0.1,0-0.2c0-0.1,0-0.2,0.2-0.3
							c0.1-0.1,0.2-0.1,0.3-0.1c0.1,0,0.1,0,0.2,0.1c0.1,0,0.1,0.1,0.2,0.2l1.9,4.2l1.9-4.2C299.6,5.1,299.7,5,299.9,5z"/>
						<path class="st0" d="M305.5,7.1v3c0,0.1,0,0.2-0.1,0.3s-0.2,0.1-0.3,0.1s-0.2,0-0.3-0.1c-0.1-0.1-0.1-0.2-0.1-0.3V9.6
							c-0.1,0.3-0.4,0.6-0.6,0.7c-0.3,0.2-0.6,0.3-1,0.3c-0.3,0-0.7-0.1-1-0.2c-0.3-0.1-0.5-0.3-0.7-0.6C301.1,9.6,301,9.3,301,9
							c0-0.4,0.1-0.7,0.3-1c0.2-0.2,0.5-0.4,1-0.5c0.5-0.1,1.1-0.2,2-0.2h0.2V7c0-0.4-0.1-0.8-0.3-1c-0.2-0.2-0.5-0.3-0.9-0.3
							c-0.5,0-1,0.1-1.5,0.4c-0.2,0.1-0.3,0.2-0.4,0.2c-0.1,0-0.2,0-0.2-0.1s-0.1-0.2-0.1-0.3c0-0.1,0-0.2,0.1-0.3
							c0.1-0.1,0.2-0.2,0.3-0.2c0.3-0.1,0.6-0.3,0.9-0.4c0.3-0.1,0.7-0.1,1-0.1C304.8,5,305.5,5.7,305.5,7.1z M304.2,9.5
							c0.3-0.3,0.4-0.7,0.4-1.2V8h-0.2c-0.7,0-1.2,0-1.5,0.1s-0.6,0.1-0.7,0.3c-0.1,0.1-0.2,0.3-0.2,0.6c0,0.3,0.1,0.5,0.3,0.7
							s0.5,0.3,0.8,0.3C303.5,9.9,303.9,9.8,304.2,9.5z"/>
					</g>
				</g>
				<line class="st157" x1="222.6" y1="1.6" x2="222.6" y2="46"/>
			</g>
			<g>
				<path class="st0" d="M189.2,43.4H20.7c-10.4,0-18.9-8.5-18.9-18.9V24c0-10.4,8.5-18.9,18.9-18.9h168.5
					c10.4,0,18.9,8.5,18.9,18.9v0.5C208.1,34.9,199.6,43.4,189.2,43.4 M20.7,5.8c-10,0-18.1,8.1-18.1,18.1v0.5
					c0,10,8.1,18.1,18.1,18.1h168.5c10,0,18.1-8.1,18.1-18.1V24c0-10-8.1-18.1-18.1-18.1H20.7z"/>
				<path class="st0" d="M51.1,20.7c-0.5,0-0.9,0.1-1.3,0.2c-0.4,0.2-0.7,0.4-1,0.7c-0.3,0.3-0.5,0.7-0.7,1.1
					c-0.2,0.4-0.2,1-0.2,1.5c0,1.2,0.3,2,0.9,2.6c0.6,0.6,1.3,0.9,2.3,0.9c0.6,0,1-0.1,1.4-0.2c0.4-0.2,0.7-0.3,1-0.5
					c0.1,0.1,0.3,0.2,0.4,0.3c0.1,0.1,0.1,0.3,0.1,0.4c0,0.2-0.1,0.4-0.2,0.5c-0.1,0.2-0.4,0.3-0.6,0.4c-0.3,0.1-0.6,0.2-0.9,0.3
					c-0.4,0.1-0.7,0.1-1.2,0.1c-0.7,0-1.3-0.1-1.9-0.3c-0.6-0.2-1.1-0.5-1.5-0.9c-0.4-0.4-0.8-0.9-1-1.5c-0.2-0.6-0.4-1.3-0.4-2.2
					c0-0.8,0.1-1.5,0.4-2.1c0.3-0.6,0.6-1.1,1-1.5c0.4-0.4,0.9-0.7,1.5-0.9c0.6-0.2,1.2-0.3,1.9-0.3c0.4,0,0.8,0,1.2,0.1
					c0.4,0.1,0.7,0.2,0.9,0.3c0.3,0.1,0.5,0.3,0.6,0.5c0.1,0.2,0.2,0.3,0.2,0.5c0,0.2,0,0.3-0.1,0.4c-0.1,0.1-0.2,0.2-0.4,0.3
					c-0.3-0.2-0.6-0.4-1-0.5C52.1,20.7,51.7,20.7,51.1,20.7"/>
				<path class="st0" d="M63.8,24.2c0,0.8-0.1,1.4-0.3,2c-0.2,0.6-0.5,1.1-0.9,1.5c-0.4,0.4-0.9,0.8-1.4,1c-0.6,0.2-1.2,0.3-1.9,0.3
					c-0.7,0-1.3-0.1-1.9-0.3c-0.6-0.2-1-0.6-1.4-1c-0.4-0.4-0.7-0.9-0.9-1.5c-0.2-0.6-0.3-1.3-0.3-2c0-0.7,0.1-1.4,0.3-2
					c0.2-0.6,0.5-1.1,0.9-1.5c0.4-0.4,0.9-0.8,1.4-1c0.6-0.2,1.2-0.3,1.9-0.3c0.7,0,1.3,0.1,1.9,0.3c0.6,0.2,1,0.6,1.4,1
					c0.4,0.4,0.7,0.9,0.9,1.5C63.7,22.8,63.8,23.5,63.8,24.2 M59.2,20.7c-0.9,0-1.6,0.3-2.1,0.9c-0.5,0.6-0.8,1.5-0.8,2.6
					c0,1.1,0.3,2,0.8,2.6c0.5,0.6,1.2,0.9,2.2,0.9c0.9,0,1.6-0.3,2.1-0.9c0.5-0.6,0.8-1.5,0.8-2.6c0-1.1-0.3-2-0.8-2.6
					C60.8,21,60.1,20.7,59.2,20.7 M61.1,15.1c0.3,0,0.5,0.1,0.7,0.3c0.2,0.2,0.3,0.3,0.3,0.5c0,0.2,0,0.3-0.1,0.5
					c-0.1,0.1-0.2,0.3-0.4,0.4l-1.8,1.8c-0.3,0-0.5-0.1-0.6-0.2c-0.2-0.1-0.2-0.3-0.2-0.5c0-0.1,0-0.2,0.1-0.3
					c0.1-0.1,0.1-0.2,0.2-0.3L61.1,15.1z"/>
				<path class="st0" d="M76.5,21.1c-0.4-0.3-0.9-0.5-1.5-0.5c-0.9,0-1.6,0.3-2.3,0.9c0.1,0.3,0.1,0.6,0.1,0.9v6.4
					c-0.1,0-0.2,0.1-0.3,0.1C72.3,29,72.2,29,72,29c-0.6,0-0.9-0.2-0.9-0.7v-5.7c0-0.7-0.2-1.1-0.6-1.4c-0.4-0.3-0.9-0.5-1.5-0.5
					c-0.4,0-0.8,0.1-1.2,0.2c-0.4,0.1-0.7,0.3-1,0.5v7.5c-0.1,0-0.2,0.1-0.3,0.1c-0.1,0-0.3,0.1-0.4,0.1c-0.6,0-0.9-0.2-0.9-0.7
					v-6.9c0-0.3,0.1-0.5,0.2-0.7c0.1-0.2,0.3-0.4,0.6-0.6c0.4-0.2,0.8-0.4,1.4-0.6c0.6-0.2,1.1-0.3,1.7-0.3c0.7,0,1.2,0.1,1.7,0.3
					c0.5,0.2,0.9,0.5,1.2,0.8c0.3-0.3,0.8-0.6,1.3-0.8c0.5-0.2,1.1-0.3,1.8-0.3c1.1,0,1.9,0.3,2.6,0.8c0.6,0.5,1,1.3,1,2.4v6.3
					c-0.1,0-0.2,0.1-0.3,0.1C78.2,29,78,29,77.9,29c-0.6,0-0.9-0.2-0.9-0.7v-5.7C77,21.9,76.8,21.4,76.5,21.1"/>
				<path class="st0" d="M84.6,29.1c-0.5,0-0.9-0.1-1.3-0.2c-0.4-0.1-0.8-0.2-1-0.4v3.9c-0.1,0-0.2,0.1-0.3,0.1
					c-0.1,0-0.3,0.1-0.4,0.1c-0.6,0-0.9-0.2-0.9-0.7V21.3c0-0.3,0-0.5,0.1-0.6c0.1-0.2,0.3-0.3,0.6-0.5c0.4-0.2,0.8-0.4,1.3-0.6
					c0.5-0.2,1.1-0.3,1.7-0.3c0.7,0,1.3,0.1,1.9,0.3c0.6,0.2,1.1,0.5,1.5,0.9c0.4,0.4,0.8,0.9,1,1.5c0.2,0.6,0.4,1.4,0.4,2.2
					c0,0.8-0.1,1.6-0.3,2.2c-0.2,0.6-0.5,1.1-0.9,1.5c-0.4,0.4-0.9,0.7-1.4,0.9C85.9,29,85.3,29.1,84.6,29.1 M84.4,27.8
					c0.9,0,1.7-0.3,2.3-0.9c0.6-0.6,0.9-1.5,0.9-2.7c0-0.7-0.1-1.2-0.3-1.7c-0.2-0.5-0.4-0.8-0.7-1.1c-0.3-0.3-0.6-0.5-1-0.6
					c-0.4-0.1-0.8-0.2-1.2-0.2c-0.5,0-0.9,0.1-1.2,0.2c-0.3,0.1-0.6,0.3-0.9,0.4v5.9c0.3,0.2,0.6,0.3,0.9,0.5
					C83.5,27.7,83.9,27.8,84.4,27.8"/>
				<path class="st0" d="M92.2,28.8c-0.1,0-0.2,0.1-0.3,0.1c-0.1,0-0.3,0.1-0.4,0.1c-0.6,0-0.9-0.2-0.9-0.7v-6.8
					c0-0.3,0.1-0.6,0.2-0.7c0.1-0.2,0.3-0.4,0.6-0.5c0.3-0.2,0.8-0.4,1.4-0.6c0.6-0.2,1.3-0.3,2-0.3c1.1,0,1.6,0.3,1.6,0.8
					c0,0.1,0,0.3-0.1,0.4c0,0.1-0.1,0.2-0.2,0.3c-0.1,0-0.3-0.1-0.5-0.1c-0.2,0-0.4,0-0.6,0c-0.6,0-1.2,0.1-1.6,0.2
					c-0.5,0.1-0.9,0.3-1.2,0.5V28.8z"/>
				<path class="st0" d="M100.5,19.3c1.2,0,2.1,0.3,2.8,0.8c0.7,0.5,1,1.3,1,2.5v4.8c0,0.3-0.1,0.5-0.2,0.7
					c-0.1,0.2-0.3,0.3-0.5,0.4c-0.3,0.2-0.7,0.4-1.3,0.5c-0.5,0.1-1.1,0.2-1.8,0.2c-1.3,0-2.2-0.2-2.9-0.7c-0.7-0.5-1-1.2-1-2.1
					c0-0.9,0.3-1.6,0.9-2c0.6-0.4,1.4-0.7,2.4-0.8l2.9-0.3v-0.6c0-0.7-0.2-1.2-0.6-1.5c-0.4-0.3-0.9-0.5-1.6-0.5
					c-0.6,0-1.1,0.1-1.6,0.2c-0.5,0.2-0.9,0.3-1.3,0.5c-0.1-0.1-0.2-0.2-0.3-0.3c-0.1-0.1-0.1-0.3-0.1-0.4c0-0.2,0-0.3,0.1-0.5
					c0.1-0.1,0.2-0.2,0.4-0.3c0.4-0.2,0.8-0.3,1.2-0.4C99.4,19.4,99.9,19.3,100.5,19.3 M100.5,27.8c0.6,0,1-0.1,1.4-0.2
					c0.4-0.1,0.6-0.2,0.8-0.3v-2.9l-2.5,0.3c-0.7,0.1-1.2,0.2-1.5,0.5c-0.3,0.2-0.5,0.6-0.5,1.1c0,0.5,0.2,0.9,0.6,1.2
					C99.1,27.7,99.7,27.8,100.5,27.8"/>
				<path class="st0" d="M107.7,28.9c-0.1,0-0.3,0.1-0.4,0.1c-0.6,0-0.9-0.2-0.9-0.7V15.9c0.1,0,0.2-0.1,0.3-0.1
					c0.1,0,0.3-0.1,0.4-0.1c0.6,0,0.9,0.2,0.9,0.7v12.4C107.9,28.9,107.8,28.9,107.7,28.9"/>
				<path class="st0" d="M111.3,25.2c0.4,1.8,1.5,2.6,3.5,2.6c0.6,0,1.1-0.1,1.5-0.3c0.5-0.2,0.8-0.4,1.1-0.6
					c0.3,0.2,0.5,0.4,0.5,0.8c0,0.2-0.1,0.4-0.3,0.5c-0.2,0.2-0.4,0.3-0.7,0.5c-0.3,0.1-0.6,0.2-1,0.3c-0.4,0.1-0.8,0.1-1.2,0.1
					c-1.6,0-2.8-0.4-3.7-1.3c-0.9-0.8-1.4-2.1-1.4-3.7c0-0.8,0.1-1.4,0.3-2c0.2-0.6,0.5-1.1,0.9-1.5c0.4-0.4,0.9-0.7,1.4-1
					c0.5-0.2,1.1-0.3,1.8-0.3c0.6,0,1.2,0.1,1.7,0.3c0.5,0.2,0.9,0.5,1.3,0.9c0.4,0.4,0.7,0.8,0.9,1.3c0.2,0.5,0.3,1.1,0.3,1.7
					c0,0.3-0.1,0.5-0.2,0.6c-0.1,0.1-0.3,0.2-0.6,0.2L111.3,25.2z M114.1,20.6c-0.8,0-1.5,0.3-2,0.9c-0.5,0.6-0.8,1.4-0.8,2.4
					l5.5-0.8c-0.1-0.7-0.3-1.3-0.8-1.8C115.5,20.9,114.9,20.6,114.1,20.6"/>
				<path class="st0" d="M122.9,19.3c1.2,0,2.1,0.3,2.8,0.8c0.7,0.5,1,1.3,1,2.5v4.8c0,0.3-0.1,0.5-0.2,0.7
					c-0.1,0.2-0.3,0.3-0.5,0.4c-0.3,0.2-0.7,0.4-1.3,0.5c-0.5,0.1-1.1,0.2-1.8,0.2c-1.3,0-2.2-0.2-2.9-0.7c-0.7-0.5-1-1.2-1-2.1
					c0-0.9,0.3-1.6,0.9-2c0.6-0.4,1.4-0.7,2.4-0.8l2.9-0.3v-0.6c0-0.7-0.2-1.2-0.6-1.5c-0.4-0.3-0.9-0.5-1.6-0.5
					c-0.6,0-1.1,0.1-1.6,0.2c-0.5,0.2-0.9,0.3-1.3,0.5c-0.1-0.1-0.2-0.2-0.3-0.3c-0.1-0.1-0.1-0.3-0.1-0.4c0-0.2,0-0.3,0.1-0.5
					c0.1-0.1,0.2-0.2,0.4-0.3c0.4-0.2,0.8-0.3,1.2-0.4C121.8,19.4,122.3,19.3,122.9,19.3 M122.9,27.8c0.6,0,1-0.1,1.4-0.2
					c0.4-0.1,0.6-0.2,0.8-0.3v-2.9l-2.5,0.3c-0.7,0.1-1.2,0.2-1.5,0.5c-0.3,0.2-0.5,0.6-0.5,1.1c0,0.5,0.2,0.9,0.6,1.2
					C121.5,27.7,122.1,27.8,122.9,27.8"/>
				<path class="st0" d="M130,28.9c-0.1,0-0.3,0.1-0.4,0.1c-0.6,0-0.9-0.2-0.9-0.7V15.9c0.1,0,0.2-0.1,0.3-0.1
					c0.1,0,0.3-0.1,0.4-0.1c0.6,0,0.9,0.2,0.9,0.7v12.4C130.3,28.9,130.2,28.9,130,28.9"/>
				<path class="st0" d="M137.5,29.5c-0.3,0-0.6,0-0.9-0.1c-0.3,0-0.5-0.1-0.7-0.2v3.5c-0.1,0-0.4,0.1-0.6,0.1
					c-0.3,0-0.6,0.1-0.9,0.1c-0.7,0-1.2-0.1-1.4-0.3c-0.3-0.2-0.4-0.6-0.4-1.3v-9.8c0-0.4,0.1-0.7,0.2-0.9c0.2-0.2,0.4-0.4,0.6-0.6
					c0.4-0.3,0.9-0.5,1.6-0.7c0.6-0.2,1.4-0.3,2.2-0.3c0.8,0,1.5,0.1,2.2,0.3c0.7,0.2,1.2,0.5,1.7,0.9c0.5,0.4,0.9,0.9,1.1,1.6
					c0.3,0.6,0.4,1.4,0.4,2.3c0,0.9-0.1,1.6-0.4,2.3c-0.3,0.6-0.6,1.2-1.1,1.6c-0.5,0.4-1,0.8-1.6,1
					C138.9,29.4,138.3,29.5,137.5,29.5 M137,26.8c0.7,0,1.2-0.2,1.5-0.6c0.4-0.4,0.5-1.1,0.5-1.9c0-0.9-0.2-1.5-0.5-1.9
					c-0.3-0.4-0.8-0.6-1.5-0.6c-0.3,0-0.5,0-0.7,0.1c-0.2,0.1-0.4,0.1-0.5,0.2v4.4c0.2,0.1,0.3,0.1,0.5,0.2
					C136.6,26.8,136.8,26.8,137,26.8"/>
				<path class="st0" d="M146.7,25.6c0.2,0.5,0.5,0.8,0.9,1c0.4,0.2,0.9,0.3,1.5,0.3c0.6,0,1.1-0.1,1.6-0.2c0.5-0.1,0.9-0.3,1.2-0.5
					c0.2,0.1,0.4,0.3,0.5,0.6c0.1,0.2,0.2,0.5,0.2,0.8c0,0.3-0.1,0.6-0.3,0.9c-0.2,0.2-0.5,0.4-0.8,0.6c-0.3,0.2-0.7,0.3-1.2,0.4
					c-0.5,0.1-1,0.1-1.5,0.1c-0.8,0-1.5-0.1-2.2-0.3c-0.7-0.2-1.3-0.6-1.8-1c-0.5-0.4-0.9-1-1.2-1.7c-0.3-0.7-0.4-1.5-0.4-2.4
					c0-0.9,0.1-1.6,0.4-2.3c0.3-0.6,0.7-1.2,1.1-1.6c0.5-0.4,1-0.7,1.6-0.9c0.6-0.2,1.2-0.3,1.8-0.3c0.7,0,1.4,0.1,1.9,0.3
					c0.6,0.2,1.1,0.5,1.5,0.9c0.4,0.4,0.7,0.8,1,1.3c0.2,0.5,0.3,1.1,0.3,1.7c0,0.5-0.1,0.8-0.4,1c-0.3,0.2-0.6,0.4-1.1,0.5
					L146.7,25.6z M148.4,21.6c-0.5,0-0.9,0.2-1.3,0.5c-0.3,0.3-0.5,0.7-0.6,1.3l3.4-0.6c0-0.1-0.1-0.3-0.1-0.4
					c-0.1-0.1-0.2-0.3-0.3-0.4c-0.1-0.1-0.3-0.2-0.5-0.3C148.9,21.6,148.6,21.6,148.4,21.6"/>
				<path class="st0" d="M157.7,29.2c-0.1,0-0.4,0.1-0.6,0.1c-0.3,0-0.6,0.1-0.9,0.1c-0.7,0-1.2-0.1-1.4-0.3
					c-0.3-0.2-0.4-0.6-0.4-1.3v-6c0-0.4,0.1-0.7,0.3-1c0.2-0.3,0.5-0.5,0.8-0.8c0.5-0.3,1-0.5,1.6-0.6c0.6-0.1,1.3-0.2,2-0.2
					c1.5,0,2.2,0.5,2.2,1.5c0,0.2,0,0.5-0.1,0.7c-0.1,0.2-0.1,0.4-0.2,0.5c-0.3-0.1-0.6-0.1-1.1-0.1c-0.3,0-0.7,0-1.1,0.1
					c-0.4,0.1-0.7,0.2-1,0.4V29.2z"/>
				<path class="st0" d="M162,19.5c0.1,0,0.4-0.1,0.6-0.1c0.3,0,0.6-0.1,0.9-0.1c0.7,0,1.2,0.1,1.4,0.3c0.3,0.2,0.4,0.6,0.4,1.3v4.4
					c0,0.5,0.1,0.9,0.4,1.2c0.3,0.2,0.7,0.4,1.2,0.4c0.3,0,0.6,0,0.8-0.1c0.2-0.1,0.3-0.1,0.5-0.2v-7.1c0.1,0,0.4-0.1,0.6-0.1
					c0.3,0,0.6-0.1,0.9-0.1c0.7,0,1.2,0.1,1.4,0.3c0.3,0.2,0.4,0.6,0.4,1.3v6.2c0,0.7-0.3,1.2-0.8,1.5c-0.5,0.3-1,0.5-1.7,0.7
					c-0.6,0.2-1.4,0.2-2.1,0.2c-0.7,0-1.4-0.1-2-0.2c-0.6-0.2-1.1-0.4-1.6-0.7c-0.4-0.3-0.8-0.8-1-1.3c-0.2-0.5-0.4-1.2-0.4-1.9
					V19.5z M168.1,14.1c0.7,0,1.2,0.1,1.6,0.4c0.3,0.3,0.5,0.6,0.5,1c0,0.3-0.1,0.6-0.2,0.8c-0.1,0.2-0.4,0.4-0.7,0.7l-1.9,1.6
					c-0.6,0-1.1-0.1-1.3-0.4c-0.3-0.3-0.4-0.6-0.4-0.9c0-0.2,0-0.3,0.1-0.5c0.1-0.1,0.2-0.3,0.4-0.5L168.1,14.1z"/>
				<path class="st0" d="M172.6,27.6c0-0.6,0.2-1,0.5-1.4c0.3-0.4,0.8-0.6,1.4-0.6c0.6,0,1.1,0.2,1.4,0.6c0.3,0.4,0.5,0.8,0.5,1.4
					c0,0.6-0.2,1-0.5,1.4c-0.3,0.4-0.8,0.6-1.4,0.6c-0.6,0-1.1-0.2-1.4-0.6C172.8,28.6,172.6,28.1,172.6,27.6"/>
				<path class="st0" d="M182.5,29.5c-0.3,0-0.6,0-0.9-0.1c-0.3,0-0.5-0.1-0.7-0.2v3.5c-0.1,0-0.4,0.1-0.6,0.1
					c-0.3,0-0.6,0.1-0.9,0.1c-0.7,0-1.2-0.1-1.4-0.3c-0.3-0.2-0.4-0.6-0.4-1.3v-9.8c0-0.4,0.1-0.7,0.2-0.9c0.2-0.2,0.4-0.4,0.6-0.6
					c0.4-0.3,0.9-0.5,1.6-0.7c0.6-0.2,1.4-0.3,2.2-0.3c0.8,0,1.5,0.1,2.2,0.3c0.7,0.2,1.2,0.5,1.7,0.9c0.5,0.4,0.9,0.9,1.1,1.6
					c0.3,0.6,0.4,1.4,0.4,2.3c0,0.9-0.1,1.6-0.4,2.3c-0.3,0.6-0.6,1.2-1.1,1.6c-0.5,0.4-1,0.8-1.6,1
					C183.9,29.4,183.3,29.5,182.5,29.5 M182,26.8c0.7,0,1.2-0.2,1.5-0.6c0.4-0.4,0.5-1.1,0.5-1.9c0-0.9-0.2-1.5-0.5-1.9
					c-0.3-0.4-0.8-0.6-1.5-0.6c-0.3,0-0.5,0-0.7,0.1c-0.2,0.1-0.4,0.1-0.5,0.2v4.4c0.2,0.1,0.3,0.1,0.5,0.2
					C181.6,26.8,181.8,26.8,182,26.8"/>
				<path class="st0" d="M191.7,25.6c0.2,0.5,0.5,0.8,0.9,1c0.4,0.2,0.9,0.3,1.5,0.3c0.6,0,1.1-0.1,1.6-0.2c0.5-0.1,0.9-0.3,1.2-0.5
					c0.2,0.1,0.4,0.3,0.5,0.6c0.1,0.2,0.2,0.5,0.2,0.8c0,0.3-0.1,0.6-0.3,0.9c-0.2,0.2-0.5,0.4-0.8,0.6c-0.3,0.2-0.7,0.3-1.2,0.4
					c-0.5,0.1-1,0.1-1.5,0.1c-0.8,0-1.5-0.1-2.2-0.3c-0.7-0.2-1.3-0.6-1.8-1c-0.5-0.4-0.9-1-1.2-1.7c-0.3-0.7-0.4-1.5-0.4-2.4
					c0-0.9,0.1-1.6,0.4-2.3c0.3-0.6,0.7-1.2,1.1-1.6c0.5-0.4,1-0.7,1.6-0.9c0.6-0.2,1.2-0.3,1.8-0.3c0.7,0,1.4,0.1,1.9,0.3
					c0.6,0.2,1.1,0.5,1.5,0.9c0.4,0.4,0.7,0.8,1,1.3c0.2,0.5,0.3,1.1,0.3,1.7c0,0.5-0.1,0.8-0.4,1c-0.3,0.2-0.6,0.4-1.1,0.5
					L191.7,25.6z M193.4,21.6c-0.5,0-0.9,0.2-1.3,0.5c-0.3,0.3-0.5,0.7-0.6,1.3l3.4-0.6c0-0.1-0.1-0.3-0.1-0.4
					c-0.1-0.1-0.2-0.3-0.3-0.4c-0.1-0.1-0.3-0.2-0.5-0.3C193.9,21.6,193.6,21.6,193.4,21.6"/>
				<path class="st0" d="M36.6,24.2c0,8.7-7,15.7-15.7,15.7c-8.7,0-15.7-7-15.7-15.7c0-8.7,7-15.7,15.7-15.7
					C29.6,8.5,36.6,15.5,36.6,24.2"/>
				<path class="st159" d="M20.7,31.6l-1.3,1.3c0.9,0.6,1.5,1,1.5,1s0.6-0.4,1.5-1l-1.5-1.4C20.8,31.5,20.8,31.5,20.7,31.6"/>
				<path class="st159" d="M25.8,19.1c0.5,0.3,0.9,0.5,1.4,0.7c0.9,0.4,1.9,0.1,2.5-0.2c-0.5-0.7-1.2-1.4-1.9-1.8
					c-0.8-0.4-1.7-0.7-2.6-0.7c-1.2,0-2.4,0.4-3.3,1.1C23,17.6,24.5,18.4,25.8,19.1"/>
				<path class="st159" d="M21,23.5c-0.6,0.7-1.7,0.9-2.5,0.7c-0.6-0.1-1.1-0.4-1.2-0.9c-0.1-0.3-0.1-0.7,0.5-1.3
					c0.4-0.4,0.8-0.8,1.1-1.2c0.6-0.7,1.2-1.3,1.8-1.8c-1-1.1-2.5-1.8-4.2-1.8c-1,0-1.8,0.3-2.6,0.7c-1.7,1-2.8,2.8-2.7,4.9
					c0,0.6,0.1,1.2,0.3,1.7c0.2,0.8,0.7,1.7,1.4,2.6l2-2c0.5-0.5,1.4-0.5,2,0c0.2,0.2,0.4,0.5,0.4,0.8c0.4-0.1,0.9,0,1.3,0.4
					c0.3,0.3,0.4,0.7,0.4,1.1c0,0,0,0,0,0c0.4,0,0.7,0.1,1,0.4c0.4,0.4,0.5,1.1,0.3,1.6c0.2,0.1,0.5,0.2,0.7,0.4
					c0.3,0.3,0.4,0.7,0.4,1.1c0,0,0,0,0,0l1.8,1.7c0.3-0.3,0.7-0.6,1.1-0.9l-2-1.9c-0.1-0.1-0.1-0.4,0-0.5c0.1-0.1,0.4-0.1,0.5,0
					l2.1,2c0.3-0.3,0.7-0.6,1-0.9l-2.3-2.1c-0.1-0.1-0.1-0.4,0-0.5c0.1-0.1,0.4-0.1,0.5,0l2.4,2.2c0.3-0.3,0.6-0.6,0.9-0.9l-2.2-2
					c-0.1-0.1-0.1-0.4,0-0.5c0.1-0.1,0.4-0.1,0.5,0l2.2,2c0.3-0.4,0.7-0.7,1-1.1c-1.1-1-3.8-3.4-5-4.3C22.3,21.9,22,22.3,21,23.5"/>
				<path d="M26.9,20.4c-0.5-0.2-1-0.5-1.5-0.7c-1.3-0.7-2.6-1.4-3.5-0.7c-0.9,0.7-1.6,1.4-2.5,2.3c-0.3,0.3-0.7,0.7-1.1,1.2
					c-0.2,0.2-0.4,0.5-0.3,0.6c0.1,0.2,0.3,0.3,0.7,0.4c0.6,0.1,1.4,0,1.8-0.4c1.1-1.3,1.8-2,3.6-0.6c1.2,1,3.8,3.4,4.9,4.4
					c0.6-0.9,1.1-1.7,1.3-2.5c0.2-0.5,0.3-1.1,0.3-1.7c0-0.9-0.2-1.7-0.5-2.4C29.3,20.6,28.1,20.9,26.9,20.4"/>
				<path d="M16.3,25.5c-0.1-0.1-0.3-0.2-0.5-0.2c-0.2,0-0.3,0.1-0.5,0.2l-2.1,2c0.3,0.3,0.6,0.7,0.9,1c0,0,0,0,0.1,0.1l2.2-2.1
					c0.1-0.1,0.1-0.2,0.2-0.3c0-0.1,0-0.1,0-0.2C16.5,25.8,16.5,25.6,16.3,25.5"/>
				<path d="M18,26.7c-0.1-0.1-0.3-0.2-0.5-0.2c-0.1,0-0.3,0-0.4,0.1c0,0,0,0-0.1,0.1L14.6,29c0,0,0,0,0.1,0.1
					c0.3,0.3,0.6,0.6,0.9,0.9c0,0,0,0,0,0l2.3-2.3c0.1-0.1,0.1-0.1,0.1-0.2C18.2,27.2,18.2,26.9,18,26.7"/>
				<path d="M20.3,30.1c-0.1-0.1-0.3-0.2-0.5-0.2c-0.1,0-0.2,0-0.2,0c-0.1,0-0.2,0.1-0.2,0.1l-1.6,1.5c0,0,0,0,0,0
					c0.4,0.3,0.7,0.6,1.1,0.8l1.4-1.4C20.5,30.8,20.5,30.4,20.3,30.1"/>
				<path d="M19.4,28.1c-0.1-0.1-0.3-0.2-0.5-0.2c-0.1,0-0.2,0-0.3,0.1c-0.1,0-0.1,0.1-0.2,0.1l-2.3,2.2c0,0,0,0,0,0
					c0.3,0.3,0.7,0.6,1,0.8c0,0,0,0,0,0l1.9-1.9l0.3-0.2C19.6,28.9,19.6,28.4,19.4,28.1"/>
			</g>
		</g>
	</g>
</g>
<g id="grilla" class="st160">
</g>
</svg>
