<?xml version="1.0" standalone="no"?>
<!DOCTYPE svg PUBLIC "-//W3C//DTD SVG 20010904//EN"
 "http://www.w3.org/TR/2001/REC-SVG-20010904/DTD/svg10.dtd">
<svg version="1.0" xmlns="http://www.w3.org/2000/svg"
 width="268.000000pt" height="268.000000pt" viewBox="0 0 268.000000 268.000000"
 preserveAspectRatio="xMidYMid meet">
<metadata>
Created by potrace 1.11, written by Peter Selinger 2001-2013
</metadata>
<g transform="translate(0.000000,268.000000) scale(0.100000,-0.100000)"
fill="#000000" stroke="none">
<path d="M1268 2665 c-2 -1 -34 -5 -72 -9 -537 -50 -1003 -447 -1147 -976 -36
-134 -41 -168 -44 -330 -11 -646 426 -1192 1065 -1330 70 -15 120 -18 285 -16
213 4 225 5 350 41 124 36 254 97 362 168 92 60 117 80 217 175 101 95 224
279 283 422 33 79 70 194 78 239 20 122 26 179 26 275 -1 434 -191 813 -540
1078 -118 90 -345 198 -466 222 -11 3 -40 9 -65 15 -75 17 -320 36 -332 26z"/>
</g>
</svg>
